<?xml version="1.0" encoding="utf-8"?>
<!--
  - Copyright (C) 2023 RollW
  -
  - Licensed under the Apache License, Version 2.0 (the "License");
  - you may not use this file except in compliance with the License.
  - You may obtain a copy of the License at
  -
  -        http://www.apache.org/licenses/LICENSE-2.0
  -
  - Unless required by applicable law or agreed to in writing, software
  - distributed under the License is distributed on an "AS IS" BASIS,
  - WITHOUT WARRANTIES OR CONDITIONS OF ANY KIND, either express or implied.
  - See the License for the specific language governing permissions and
  - limitations under the License.
  -->

<svg version="1.1" xmlns="http://www.w3.org/2000/svg" xmlns:xlink="http://www.w3.org/1999/xlink" x="0px" y="0px"
	 viewBox="0 0 48 48" style="enable-background:new 0 0 48 48;" xml:space="preserve">
<style type="text/css">
	.st0{fill:#FFCB6D;}
</style>
<path class="st0" d="M20.2,42c0.4,0,0.8-0.1,1.1-0.4c0.3-0.3,0.4-0.6,0.4-1.1s-0.1-0.8-0.4-1.1C21,39.1,20.6,39,20.2,39h-13
	c-0.4,0-0.8,0.1-1.1,0.4s-0.4,0.6-0.4,1.1s0.1,0.8,0.4,1.1S6.8,42,7.2,42H20.2z M13.7,37c0.4,0,0.8-0.1,1.1-0.4s0.4-0.6,0.4-1.1V16
	c0-0.7,0.2-1.3,0.7-1.8c0.5-0.5,1.1-0.7,1.8-0.7h8v7c0,0.4,0.1,0.8,0.4,1.1c0.3,0.3,0.6,0.4,1.1,0.4h13.3c0.6,0,1-0.2,1.3-0.7
	s0.3-0.9,0.1-1.4L36.5,7.8c-0.3-0.6-0.6-1-1.1-1.3S34.4,6,33.8,6h-5.1c-0.8,0-1.5,0.3-2.1,0.9S25.7,8.2,25.7,9v1.5h-8
	c-1.5,0-2.8,0.5-3.9,1.6s-1.6,2.4-1.6,3.9v19.5c0,0.4,0.1,0.8,0.4,1.1S13.3,37,13.7,37z"/>
</svg>
